[IMG]http://i126.photobucket.com/albums/p102/tebugg/51mXjAsRVnL_SS500_.jpg[/IMG]

[IMG]http://i126.photobucket.com/albums/p102/tebugg/info.png[/IMG]

[code]
General
Complete name                    : E:\Unthinkable DVDRip Xvid AC3-THC\Unthinkable DVDRip Xvid AC3-THC.avi
Format                           : AVI
Format/Info                      : Audio Video Interleave
Format profile                   : OpenDML
File size                        : 1.44 GiB
Duration                         : 1h 45mn
Overall bit rate                 : 1 952 Kbps
Writing application              : AVI-Mux GUI 1.17.8.3, Feb 16 201019:42:50

Video
ID                               : 0
Format                           : MPEG-4 Visual
Format profile                   : Advanced Simple@L5
Format settings, BVOP            : Yes
Format settings, QPel            : No
Format settings, GMC             : No warppoints
Format settings, Matrix          : Default (MPEG)
Codec ID                         : XVID
Codec ID/Hint                    : XviD
Duration                         : 1h 45mn
Bit rate                         : 1 499 Kbps
Width                            : 720 pixels
Height                           : 384 pixels
Display aspect ratio             : 1.875
Frame rate                       : 23.976 fps
Color space                      : YUV
Chroma subsampling               : 4:2:0
Bit depth                        : 8 bits
Scan type                        : Progressive
Bits/(Pixel*Frame)               : 0.226
Stream size                      : 1.11 GiB (77%)
Writing library                  : XviD 1.2.1 (UTC 2008-12-04)

Audio
ID                               : 1
Format                           : AC-3
Format/Info                      : Audio Coding 3
Mode extension                   : CM (complete main)
Codec ID                         : 2000
Duration                         : 1h 45mn
Bit rate mode                    : Constant
Bit rate                         : 448 Kbps
Channel(s)                       : 6 channels
Channel positions                : Front: L C R, Side: L R, LFE
Sampling rate                    : 48.0 KHz
Bit depth                        : 16 bits
Stream size                      : 339 MiB (23%)
Alignment                        : Aligned on interleaves
Interleave, duration             : 64 ms (1.53 video frames)
Interleave, preload duration     : 192 ms
Title                            : VTS_01_1 T81 3_2ch 448Kbps DELAY 0ms

Actors: Samuel L. Jackson, Carrie-Anne Moss, Michael Sheen, Stephen Root, Lora Kojovic
Directors: Gregor Jordan
Writers: Peter Woodward
Producers: Bill Perkins, Caldecot Chubb, Marco Weber, Rachel Rose, Samson Mucke
Language: English
Subtitles: English
Rated: R (Restricted)
Studio: Sony Pictures
DVD Release Date: June 15, 2010
Run Time: 97 minutes
Sample Included: Yes

[/code]


[IMG]http://i126.photobucket.com/albums/p102/tebugg/plot.png[/IMG]

[B]The most suspenseful thriller of the year explores just how far we will go to protect ourselves and our country. When a nuclear expert-turned-extremist (Michael Sheen, Underworld) plants devices in three separate cities, the country's counter-terrorism force springs into action and captures him. But the location of his bombs remains a mystery. With time running out, FBI agent Helen Brody (Carrie-Anne Moss, Disturbia) agrees to work alongside a mysterious interrogator known only as "H" (Samuel L. Jackson, Lakeview Terrace), whose ruthless methods get results. But a power struggle develops between Brody, "H', and the terrorist, and what happens next is unbelievable and -ultimately-Unthinkable! [/B]

[IMG]http://i126.photobucket.com/albums/p102/tebugg/screens-1.png[/IMG]

[IMG]http://i126.photobucket.com/albums/p102/tebugg/vlcsnap-2010-10-26-12h47m45s78.png[/IMG]
[IMG]http://i126.photobucket.com/albums/p102/tebugg/vlcsnap-2010-10-26-12h47m50s121.png[/IMG]
[IMG]http://i126.photobucket.com/albums/p102/tebugg/vlcsnap-2010-10-26-12h48m08s23.png[/IMG]
[IMG]http://i126.photobucket.com/albums/p102/tebugg/vlcsnap-2010-10-26-12h48m16s136.png[/IMG]

